<svg id="visual" viewBox="0 0 450 900" width="450" height="900" xmlns="http://www.w3.org/2000/svg" xmlns:xlink="http://www.w3.org/1999/xlink" version="1.1"><path d="M0 55L41 55L41 64L82 64L82 73L123 73L123 64L164 64L164 82L205 82L205 46L245 46L245 46L286 46L286 55L327 55L327 46L368 46L368 73L409 73L409 46L450 46L450 64L450 0L450 0L409 0L409 0L368 0L368 0L327 0L327 0L286 0L286 0L245 0L245 0L205 0L205 0L164 0L164 0L123 0L123 0L82 0L82 0L41 0L41 0L0 0Z" fill="#ccfbf1"></path><path d="M0 145L41 145L41 163L82 163L82 136L123 136L123 118L164 118L164 145L205 145L205 145L245 145L245 145L286 145L286 118L327 118L327 127L368 127L368 154L409 154L409 100L450 100L450 118L450 62L450 44L409 44L409 71L368 71L368 44L327 44L327 53L286 53L286 44L245 44L245 44L205 44L205 80L164 80L164 62L123 62L123 71L82 71L82 62L41 62L41 53L0 53Z" fill="#d0fbe9"></path><path d="M0 244L41 244L41 289L82 289L82 208L123 208L123 226L164 226L164 235L205 235L205 253L245 253L245 235L286 235L286 208L327 208L327 226L368 226L368 262L409 262L409 208L450 208L450 253L450 116L450 98L409 98L409 152L368 152L368 125L327 125L327 116L286 116L286 143L245 143L245 143L205 143L205 143L164 143L164 116L123 116L123 134L82 134L82 161L41 161L41 143L0 143Z" fill="#d6fbe0"></path><path d="M0 460L41 460L41 514L82 514L82 451L123 451L123 442L164 442L164 523L205 523L205 424L245 424L245 433L286 433L286 379L327 379L327 451L368 451L368 478L409 478L409 505L450 505L450 469L450 251L450 206L409 206L409 260L368 260L368 224L327 224L327 206L286 206L286 233L245 233L245 251L205 251L205 233L164 233L164 224L123 224L123 206L82 206L82 287L41 287L41 242L0 242Z" fill="#defad8"></path><path d="M0 694L41 694L41 748L82 748L82 631L123 631L123 685L164 685L164 667L205 667L205 703L245 703L245 667L286 667L286 667L327 667L327 649L368 649L368 685L409 685L409 694L450 694L450 640L450 467L450 503L409 503L409 476L368 476L368 449L327 449L327 377L286 377L286 431L245 431L245 422L205 422L205 521L164 521L164 440L123 440L123 449L82 449L82 512L41 512L41 458L0 458Z" fill="#e8f8d1"></path><path d="M0 829L41 829L41 838L82 838L82 820L123 820L123 793L164 793L164 811L205 811L205 793L245 793L245 829L286 829L286 820L327 820L327 802L368 802L368 793L409 793L409 802L450 802L450 793L450 638L450 692L409 692L409 683L368 683L368 647L327 647L327 665L286 665L286 665L245 665L245 701L205 701L205 665L164 665L164 683L123 683L123 629L82 629L82 746L41 746L41 692L0 692Z" fill="#f3f6cb"></path><path d="M0 901L41 901L41 901L82 901L82 901L123 901L123 901L164 901L164 901L205 901L205 901L245 901L245 901L286 901L286 901L327 901L327 901L368 901L368 901L409 901L409 901L450 901L450 901L450 791L450 800L409 800L409 791L368 791L368 800L327 800L327 818L286 818L286 827L245 827L245 791L205 791L205 809L164 809L164 791L123 791L123 818L82 818L82 836L41 836L41 827L0 827Z" fill="#fef3c7"></path></svg>