<svg id="visual" filter="url(#filter)" viewBox="0 0 1200 900" width="1200" height="900" xmlns="http://www.w3.org/2000/svg" blur="0.8" opacity="0.7" xmlns:xlink="http://www.w3.org/1999/xlink" version="1.1"><defs>
        <filter id="filter" x="0" y="0">
          <feGaussianBlur in="SourceGraphic" stdDeviation="1.5" />
        </filter>
      </defs><rect width="1200" height="900" fill="#9ca3af"></rect><g><g transform="translate(1146 411)"><path d="M139.2 -41.4C157.8 12 134.8 82.9 83.9 121.2C33 159.5 -45.6 165.2 -96.7 129.1C-147.8 92.9 -171.3 14.8 -150.6 -41.5C-129.9 -97.8 -64.9 -132.2 -2.3 -131.5C60.3 -130.7 120.6 -94.8 139.2 -41.4Z" stroke="#e5e7eb" fill="none" stroke-width="20"></path></g><g transform="translate(244 514)"><path d="M99.5 -36.8C113.8 11.8 99.9 65.1 65.7 89.9C31.5 114.6 -23.1 110.7 -61.4 83.2C-99.7 55.7 -121.7 4.5 -108.7 -42.2C-95.8 -88.9 -47.9 -131.1 -2.7 -130.2C42.6 -129.3 85.1 -85.4 99.5 -36.8Z" stroke="#e5e7eb" fill="none" stroke-width="20"></path></g><g transform="translate(158 31)"><path d="M130.6 -44.8C147.5 9.7 124.5 74.7 80.3 105.7C36.1 136.7 -29.4 133.6 -80.4 99.2C-131.4 64.9 -167.9 -0.8 -152.1 -53.7C-136.3 -106.6 -68.1 -146.8 -5.7 -145C56.8 -143.1 113.6 -99.3 130.6 -44.8Z" stroke="#e5e7eb" fill="none" stroke-width="20"></path></g><g transform="translate(744 769)"><path d="M93.8 -31.4C104.1 1.4 83.1 43.5 51.6 65.1C20 86.6 -22.3 87.7 -51.9 67.1C-81.6 46.6 -98.8 4.5 -88 -28.8C-77.3 -62.1 -38.6 -86.6 1.5 -87.1C41.7 -87.6 83.4 -64.1 93.8 -31.4Z"  stroke="#e5e7eb" fill="none" stroke-width="20" ></path></g><g transform="translate(659 169)"><path d="M120.7 -38.5C134.8 4.2 109.7 60.3 69.8 87.2C29.9 114.1 -24.9 111.8 -62 84.9C-99.2 58 -118.8 6.5 -105.6 -35C-92.3 -76.5 -46.2 -108 3.6 -109.2C53.3 -110.3 106.6 -81.2 120.7 -38.5Z" stroke="#e5e7eb" fill="none" stroke-width="20"></path></g><g transform="translate(23 897)"><path d="M91.9 -28.1C105.2 10.8 92.3 60.1 60.3 83.4C28.3 106.7 -22.7 104.1 -56.6 79.2C-90.6 54.3 -107.3 7 -95 -30.6C-82.7 -68.3 -41.4 -96.2 -1 -95.9C39.4 -95.5 78.7 -66.9 91.9 -28.1Z" stroke="#e5e7eb" fill="none" stroke-width="20"></path></g></g></svg>