<svg id="visual" viewBox="0 0 1920 930" width="1920" height="930" xmlns="http://www.w3.org/2000/svg" xmlns:xlink="http://www.w3.org/1999/xlink" version="1.1"><path d="M0 168L29.2 197.5C58.3 227 116.7 286 174.8 318.7C233 351.3 291 357.7 349.2 360.8C407.3 364 465.7 364 523.8 354.7C582 345.3 640 326.7 698.2 318.8C756.3 311 814.7 314 872.8 306.2C931 298.3 989 279.7 1047.2 254.8C1105.3 230 1163.7 199 1221.8 196C1280 193 1338 218 1396.2 230.5C1454.3 243 1512.7 243 1570.8 233.7C1629 224.3 1687 205.7 1745.2 201C1803.3 196.3 1861.7 205.7 1890.8 210.3L1920 215L1920 0L1890.8 0C1861.7 0 1803.3 0 1745.2 0C1687 0 1629 0 1570.8 0C1512.7 0 1454.3 0 1396.2 0C1338 0 1280 0 1221.8 0C1163.7 0 1105.3 0 1047.2 0C989 0 931 0 872.8 0C814.7 0 756.3 0 698.2 0C640 0 582 0 523.8 0C465.7 0 407.3 0 349.2 0C291 0 233 0 174.8 0C116.7 0 58.3 0 29.2 0L0 0Z" fill="#2dd4bf"></path><path d="M0 615L29.2 611.8C58.3 608.7 116.7 602.3 174.8 586.8C233 571.3 291 546.7 349.2 543.7C407.3 540.7 465.7 559.3 523.8 554.7C582 550 640 522 698.2 503.3C756.3 484.7 814.7 475.3 872.8 478.5C931 481.7 989 497.3 1047.2 517.5C1105.3 537.7 1163.7 562.3 1221.8 576.2C1280 590 1338 593 1396.2 577.5C1454.3 562 1512.7 528 1570.8 504.8C1629 481.7 1687 469.3 1745.2 477C1803.3 484.7 1861.7 512.3 1890.8 526.2L1920 540L1920 213L1890.8 208.3C1861.7 203.7 1803.3 194.3 1745.2 199C1687 203.7 1629 222.3 1570.8 231.7C1512.7 241 1454.3 241 1396.2 228.5C1338 216 1280 191 1221.8 194C1163.7 197 1105.3 228 1047.2 252.8C989 277.7 931 296.3 872.8 304.2C814.7 312 756.3 309 698.2 316.8C640 324.7 582 343.3 523.8 352.7C465.7 362 407.3 362 349.2 358.8C291 355.7 233 349.3 174.8 316.7C116.7 284 58.3 225 29.2 195.5L0 166Z" fill="#79e9d6"></path><path d="M0 745L29.2 746.5C58.3 748 116.7 751 174.8 735.5C233 720 291 686 349.2 683C407.3 680 465.7 708 523.8 711.2C582 714.3 640 692.7 698.2 669.3C756.3 646 814.7 621 872.8 617.8C931 614.7 989 633.3 1047.2 652C1105.3 670.7 1163.7 689.3 1221.8 694C1280 698.7 1338 689.3 1396.2 684.7C1454.3 680 1512.7 680 1570.8 659.8C1629 639.7 1687 599.3 1745.2 590C1803.3 580.7 1861.7 602.3 1890.8 613.2L1920 624L1920 538L1890.8 524.2C1861.7 510.3 1803.3 482.7 1745.2 475C1687 467.3 1629 479.7 1570.8 502.8C1512.7 526 1454.3 560 1396.2 575.5C1338 591 1280 588 1221.8 574.2C1163.7 560.3 1105.3 535.7 1047.2 515.5C989 495.3 931 479.7 872.8 476.5C814.7 473.3 756.3 482.7 698.2 501.3C640 520 582 548 523.8 552.7C465.7 557.3 407.3 538.7 349.2 541.7C291 544.7 233 569.3 174.8 584.8C116.7 600.3 58.3 606.7 29.2 609.8L0 613Z" fill="#99f6e4"></path><path d="M0 875L29.2 870.3C58.3 865.7 116.7 856.3 174.8 839.3C233 822.3 291 797.7 349.2 797.7C407.3 797.7 465.7 822.3 523.8 823.8C582 825.3 640 803.7 698.2 796C756.3 788.3 814.7 794.7 872.8 810.2C931 825.7 989 850.3 1047.2 862.7C1105.3 875 1163.7 875 1221.8 864.2C1280 853.3 1338 831.7 1396.2 824C1454.3 816.3 1512.7 822.7 1570.8 819.7C1629 816.7 1687 804.3 1745.2 799.7C1803.3 795 1861.7 798 1890.8 799.5L1920 801L1920 622L1890.8 611.2C1861.7 600.3 1803.3 578.7 1745.2 588C1687 597.3 1629 637.7 1570.8 657.8C1512.7 678 1454.3 678 1396.2 682.7C1338 687.3 1280 696.7 1221.8 692C1163.7 687.3 1105.3 668.7 1047.2 650C989 631.3 931 612.7 872.8 615.8C814.7 619 756.3 644 698.2 667.3C640 690.7 582 712.3 523.8 709.2C465.7 706 407.3 678 349.2 681C291 684 233 718 174.8 733.5C116.7 749 58.3 746 29.2 744.5L0 743Z" fill="#79e9d6"></path><path d="M0 931L29.2 931C58.3 931 116.7 931 174.8 931C233 931 291 931 349.2 931C407.3 931 465.7 931 523.8 931C582 931 640 931 698.2 931C756.3 931 814.7 931 872.8 931C931 931 989 931 1047.2 931C1105.3 931 1163.7 931 1221.8 931C1280 931 1338 931 1396.2 931C1454.3 931 1512.7 931 1570.8 931C1629 931 1687 931 1745.2 931C1803.3 931 1861.7 931 1890.8 931L1920 931L1920 799L1890.8 797.5C1861.7 796 1803.3 793 1745.2 797.7C1687 802.3 1629 814.7 1570.8 817.7C1512.7 820.7 1454.3 814.3 1396.2 822C1338 829.7 1280 851.3 1221.8 862.2C1163.7 873 1105.3 873 1047.2 860.7C989 848.3 931 823.7 872.8 808.2C814.7 792.7 756.3 786.3 698.2 794C640 801.7 582 823.3 523.8 821.8C465.7 820.3 407.3 795.7 349.2 795.7C291 795.7 233 820.3 174.8 837.3C116.7 854.3 58.3 863.7 29.2 868.3L0 873Z" fill="#2dd4bf"></path></svg>