<svg id="visual" viewBox="0 0 450 900" width="450" height="900" xmlns="http://www.w3.org/2000/svg" xmlns:xlink="http://www.w3.org/1999/xlink" version="1.1"><path d="M377 900L355 818L377 736L310 655L346 573L314 491L359 409L247 327L323 245L296 164L355 82L260 0L450 0L450 82L450 164L450 245L450 327L450 409L450 491L450 573L450 655L450 736L450 818L450 900Z" fill="#fde68a"></path><path d="M278 900L260 818L260 736L197 655L265 573L206 491L287 409L211 327L238 245L193 164L283 82L170 0L261 0L356 82L297 164L324 245L248 327L360 409L315 491L347 573L311 655L378 736L356 818L378 900Z" fill="#d7eb91"></path><path d="M179 900L206 818L197 736L139 655L188 573L166 491L256 409L139 327L179 245L143 164L238 82L134 0L171 0L284 82L194 164L239 245L212 327L288 409L207 491L266 573L198 655L261 736L261 818L279 900Z" fill="#afeda2"></path><path d="M143 900L166 818L161 736L62 655L161 573L134 491L215 409L76 327L134 245L107 164L166 82L84 0L135 0L239 82L144 164L180 245L140 327L257 409L167 491L189 573L140 655L198 736L207 818L180 900Z" fill="#87edba"></path><path d="M0 900L0 818L0 736L0 655L0 573L0 491L0 409L0 327L0 245L0 164L0 82L0 0L85 0L167 82L108 164L135 245L77 327L216 409L135 491L162 573L63 655L162 736L167 818L144 900Z" fill="#5eead4"></path></svg>